<svg width="161" height="101" viewBox="0 0 161 101" fill="none" xmlns="http://www.w3.org/2000/svg">
<path d="M11.9712 49.4357H0V29.3568H11.9712V27.0432C11.9712 23.8992 12.3979 20.7091 13.2514 17.52C14.1048 14.3083 15.5645 11.411 17.5862 8.82816C19.6301 6.24528 22.3478 4.1112 25.7395 2.47152C29.1307 0.83184 33.3758 0.00142969 38.4744 0.00142969H53.8598V19.0925L44.5166 19.0253C42.9893 19.0253 41.6866 19.2499 40.6311 19.6766C39.5755 20.1259 38.7216 20.7322 38.0702 21.4958C37.4194 22.26 36.9475 23.1581 36.6557 24.1915C36.3634 25.2245 36.229 26.3246 36.229 27.5155V29.3573H51.6984C51.1632 29.5546 50.6362 29.7633 50.1173 29.9856C45.5582 31.9397 41.6947 34.5677 38.5282 37.8917C35.3837 41.1936 32.9578 45.0792 31.296 49.5264C29.6338 53.9736 28.8029 58.6901 28.8029 63.6763C28.8029 68.6851 29.6338 73.4016 31.3406 77.8488C32.5752 81.1075 34.2077 84.0648 36.2294 86.7115V97.9507H11.9726V49.4362L11.9712 49.4357ZM28.4477 63.6754C28.4477 58.6498 29.2867 53.891 30.9648 49.4025C31.8029 47.1595 32.8325 45.0586 34.0464 43.1054C35.267 41.1418 36.6778 39.3211 38.2718 37.6478C39.8726 35.9669 41.6501 34.4621 43.6003 33.1325C45.551 31.8029 47.6775 30.6456 49.9781 29.6602C52.2749 28.6757 54.731 27.9394 57.3389 27.4488C59.9568 26.9563 62.7245 26.711 65.6366 26.711C67.6728 26.711 69.6077 26.8594 71.436 27.155C73.2658 27.4512 74.9837 27.8947 76.5845 28.4851C78.1958 29.0654 79.7055 29.7072 81.108 30.4104C82.3431 31.0291 83.495 31.6954 84.5611 32.4072L85.297 29.0246H106.397V98.3045H85.2955L84.5606 94.8398C83.4902 95.5728 82.333 96.253 81.0917 96.8798C79.6747 97.5955 78.1474 98.2435 76.513 98.8224C74.8906 99.4114 73.1635 99.8549 71.3414 100.151C69.515 100.447 67.5955 100.595 65.592 100.595C62.6981 100.595 59.953 100.351 57.3542 99.8635C54.7555 99.3763 52.3051 98.6443 50.0021 97.668C47.7111 96.6941 45.5962 95.5478 43.6541 94.2264C41.7106 92.9035 39.9379 91.4045 38.3386 89.725C36.7483 88.0546 35.3395 86.2373 34.1174 84.2774C32.8978 82.321 31.8595 80.2171 31.009 77.9717C30.1469 75.7238 29.5066 73.4112 29.0822 71.0323C28.6574 68.6506 28.4477 66.1982 28.4477 63.6744V63.6754ZM31.6258 49.6488C29.9794 54.0533 29.1562 58.729 29.1562 63.6754C29.1562 66.1598 29.3626 68.5718 29.7797 70.9114C30.1973 73.2542 30.8251 75.5237 31.6694 77.7221C32.5032 79.9219 33.5208 81.984 34.7184 83.905C35.917 85.8269 37.296 87.6067 38.8502 89.2392C40.4165 90.8832 42.1502 92.3496 44.0515 93.6432C45.9557 94.9378 48.0307 96.0619 50.2781 97.0181C52.5317 97.9738 54.9341 98.6909 57.4843 99.169C60.0341 99.647 62.737 99.8866 65.592 99.8866C67.5663 99.8866 69.4478 99.7421 71.2277 99.4531C73.0056 99.1651 74.6899 98.7326 76.2744 98.1566C77.8834 97.5869 79.3834 96.9504 80.773 96.2482C82.1544 95.5507 83.4283 94.7861 84.5904 93.9557L85.0296 93.6422L85.8677 97.5955H105.688V29.7326H85.8667L85.0286 33.5885L84.5933 33.2856C83.4264 32.4749 82.1582 31.7261 80.7922 31.0416C79.4112 30.3494 77.927 29.7182 76.3435 29.149C74.7768 28.5725 73.103 28.1395 71.3246 27.852C69.5424 27.564 67.645 27.4195 65.6362 27.4195C62.7624 27.4195 60.0379 27.66 57.4685 28.1434C54.9125 28.6238 52.5058 29.3462 50.2551 30.3105C47.9967 31.2782 45.9101 32.4134 43.9982 33.7166C42.0869 35.0198 40.3474 36.4925 38.7831 38.135C37.225 39.7704 35.844 41.5536 34.6469 43.4794C33.4546 45.3979 32.4451 47.4557 31.6258 49.6493V49.6488ZM52.9469 63.6307C52.9469 66.1689 53.3515 68.437 54.1373 70.4813C54.923 72.5251 56.0011 74.2546 57.3941 75.6922C58.7645 77.1523 60.3816 78.2529 62.2003 79.0166C64.02 79.7803 65.9741 80.1619 68.0851 80.1619C70.1966 80.1619 72.1282 79.7803 73.9474 79.0166C75.744 78.2529 77.3165 77.1523 78.6864 75.7378C80.0342 74.3002 81.0898 72.5707 81.876 70.549C82.6397 68.5056 83.0213 66.2145 83.0213 63.6317C83.0213 61.1385 82.6171 58.8701 81.8309 56.8714C81.0446 54.8501 79.967 53.1432 78.6192 51.7051C77.2488 50.2901 75.6543 49.1894 73.8351 48.4262C72.0159 47.6626 70.0618 47.281 67.9507 47.281C65.7946 47.281 63.8179 47.663 61.9987 48.4262C60.1795 49.1899 58.6075 50.268 57.2597 51.683C55.9123 53.0755 54.8789 54.805 54.0926 56.8262C53.329 58.8701 52.9474 61.139 52.9474 63.6322L52.9469 63.6307ZM82.9867 63.6754C82.9867 58.6891 83.795 53.9501 85.4126 49.4803C87.0523 45.0336 89.4106 41.1254 92.5325 37.801C95.6323 34.4544 99.4507 31.8038 103.943 29.8502C108.434 27.8962 113.578 26.9304 119.373 26.9304C122.786 26.9304 125.886 27.3346 128.626 28.1429C131.366 28.9517 133.837 29.9846 136.083 31.2648V0H160.228V97.9493H139.767L138.846 93.9514C136.488 95.7706 133.703 97.3205 130.536 98.5334C127.346 99.769 123.753 100.375 119.777 100.375C114.072 100.375 108.951 99.4094 104.391 97.4779C99.8544 95.5464 95.9914 92.9184 92.8243 89.5718C89.6347 86.2253 87.2093 82.3397 85.525 77.8699C83.8176 73.4227 82.9872 68.6837 82.9872 63.6749L82.9867 63.6754ZM107.131 63.6307C107.131 66.191 107.536 68.4821 108.322 70.5259C109.108 72.5918 110.186 74.3443 111.578 75.804C112.949 77.2416 114.566 78.3643 116.385 79.128C118.204 79.9142 120.158 80.2958 122.27 80.2958C124.381 80.2958 126.335 79.9142 128.155 79.128C129.974 78.3643 131.546 77.2641 132.894 75.8265C134.241 74.3889 135.297 72.6595 136.083 70.5936C136.869 68.5497 137.273 66.2136 137.273 63.6307C137.273 61.115 136.869 58.8466 136.083 56.8032C135.297 54.7819 134.219 53.052 132.871 51.6144C131.501 50.1773 129.906 49.0766 128.064 48.313C126.223 47.5272 124.246 47.1451 122.135 47.1451C120.024 47.1451 118.047 47.5272 116.206 48.313C114.364 49.0766 112.792 50.1773 111.444 51.5698C110.097 52.9848 109.063 54.7142 108.277 56.7806C107.513 58.8245 107.131 61.115 107.131 63.6312V63.6307Z" fill="white"/>
</svg>
